<svg xmlns="http://www.w3.org/2000/svg" viewBox="0 0 200 240" fill="none">
  <ellipse cx="100" cy="130" rx="55" ry="70" fill="#8B4513" opacity="0.85"/>
  <ellipse cx="100" cy="120" rx="50" ry="45" fill="#A0522D"/>
  <path d="M60 80 Q100 40 140 80" stroke="#6B3410" stroke-width="3" fill="#8B4513"/>
  <path d="M70 70 L65 45 L75 60" fill="#6B3410"/>
  <path d="M130 70 L135 45 L125 60" fill="#6B3410"/>
  <ellipse cx="85" cy="110" rx="8" ry="6" fill="#1a1a1a"/>
  <ellipse cx="115" cy="110" rx="8" ry="6" fill="#1a1a1a"/>
  <ellipse cx="85" cy="112" rx="3" ry="2" fill="white" opacity="0.8"/>
  <ellipse cx="115" cy="112" rx="3" ry="2" fill="white" opacity="0.8"/>
  <path d="M92 125 Q100 132 108 125" stroke="#1a1a1a" stroke-width="2" fill="none"/>
  <rect x="90" y="175" width="20" height="40" rx="3" fill="#A0522D"/>
  <rect x="65" y="185" width="15" height="35" rx="5" fill="#8B4513" transform="rotate(-20 72 200)"/>
  <rect x="120" y="185" width="15" height="35" rx="5" fill="#8B4513" transform="rotate(20 127 200)"/>
  <rect x="80" y="195" width="12" height="30" rx="4" fill="#6B3410" transform="rotate(-10 86 210)"/>
  <rect x="108" y="195" width="12" height="30" rx="4" fill="#6B3410" transform="rotate(10 114 210)"/>
  <ellipse cx="100" cy="168" rx="20" ry="8" fill="#A0522D"/>
  <path d="M100 168 L95 178 L105 178 Z" fill="#6B3410"/>
</svg>
