<svg xmlns="http://www.w3.org/2000/svg" viewBox="0 0 200 240" fill="none">
  <circle cx="100" cy="120" r="90" fill="#2B2B2B" opacity="0.9"/>
  <ellipse cx="100" cy="140" rx="70" ry="80" fill="#1a1a1a"/>
  <ellipse cx="100" cy="100" rx="60" ry="50" fill="#333"/>
  <ellipse cx="85" cy="90" rx="10" ry="8" fill="white"/>
  <ellipse cx="115" cy="90" rx="10" ry="8" fill="white"/>
  <ellipse cx="87" cy="92" rx="5" ry="5" fill="#1a1a1a"/>
  <ellipse cx="117" cy="92" rx="5" ry="5" fill="#1a1a1a"/>
  <ellipse cx="100" cy="108" rx="8" ry="4" fill="#FF8C00"/>
  <path d="M70 75 Q100 55 130 75" stroke="#555" stroke-width="2" fill="none"/>
  <ellipse cx="70" cy="170" rx="25" ry="15" fill="#1a1a1a" transform="rotate(-15 70 170)"/>
  <ellipse cx="130" cy="170" rx="25" ry="15" fill="#1a1a1a" transform="rotate(15 130 170)"/>
  <ellipse cx="60" cy="200" rx="20" ry="10" fill="#333" transform="rotate(-10 60 200)"/>
  <ellipse cx="140" cy="200" rx="20" ry="10" fill="#333" transform="rotate(10 140 200)"/>
  <circle cx="40" cy="85" r="12" fill="#FFD700" opacity="0.3"/>
  <circle cx="35" cy="80" r="3" fill="#FFD700" opacity="0.5"/>
</svg>
